<svg xmlns="http://www.w3.org/2000/svg" viewBox="0 0 720 195" width="720" height="195" role="img" aria-labelledby="title desc">
  <title id="title">GitHub activity for shutu-hub</title>
  <desc id="desc">Current streak: 5 days. Total contributions: 1,401. Longest streak: 19 days.</desc>
  <rect width="720" height="195" fill="#0d1117"/>
  <path d="M240 42v139M480 42v139" stroke="#30363d"/>
  <circle cx="360" cy="85" r="43" fill="none" stroke="#818cf8" stroke-width="5"/>
  <path d="M360 39c-9-11 5-16 2-25 12 8 4 15 8 19 3-2 4-5 4-8 8 12 4 22-9 22-7 0-11-3-11-9 2 2 4 2 6 1z" fill="#38bdf8"/>
  <g font-family="-apple-system, BlinkMacSystemFont, Segoe UI, Arial, sans-serif" text-anchor="middle" fill="#e6edf3">
    <text x="120" y="96" font-size="31" font-weight="700">5</text>
    <text x="360" y="95" font-size="27" font-weight="700">1,401</text>
    <text x="600" y="96" font-size="31" font-weight="700">19</text>
    <text x="120" y="151" font-size="15" font-weight="600">Current Streak</text>
    <text x="360" y="151" font-size="15" font-weight="600">Total Contributions</text>
    <text x="600" y="151" font-size="15" font-weight="600">Longest Streak</text>
  </g>
  <g font-family="-apple-system, BlinkMacSystemFont, Segoe UI, Arial, sans-serif" font-size="12" text-anchor="middle" fill="#8b949e">
    <text x="120" y="177">Sep 20 – Sep 24, 2026</text>
    <text x="360" y="177">Mar 7, 2024 – Present</text>
    <text x="600" y="177">Nov 19 – Dec 7, 2025</text>
  </g>
</svg>
